Coordinates
version=1
nRows=15
nColumns=42
inDegrees=yes

Units are S.I. units (second, meters, Newtons, ...)
If the header above contains a line with 'inDegrees', this indicates whether rotational values are in degrees (yes) or radians (no).

endheader
time	pelvis_tilt	pelvis_list	pelvis_rotation	pelvis_tx	pelvis_ty	pelvis_tz	hip_flexion_r	hip_adduction_r	hip_rotation_r	knee_angle_r	knee_adduction_r	knee_angle_r_beta	ankle_angle_r	subtalar_angle_r	mtp_angle_r	hip_flexion_l	hip_adduction_l	hip_rotation_l	knee_angle_l	knee_adduction_l	knee_angle_l_beta	ankle_angle_l	subtalar_angle_l	mtp_angle_l	lumbar_extension	lumbar_bending	lumbar_rotation	arm_flex_r	arm_add_r	arm_rot_r	elbow_flex_r	pro_sup_r	wrist_flex_r	wrist_dev_r	arm_flex_l	arm_add_l	arm_rot_l	elbow_flex_l	pro_sup_l	wrist_flex_l	wrist_dev_l
      3.00000000	      4.47054244	     -0.01091175	      3.36056764	     -0.19324248	      0.86882490	     -0.21564136	      8.51852230	     -6.54309642	      0.37280732	     67.75567817	      4.09046559	      1.18255967	      2.02915843	     -0.57659561	     -7.51376045	     15.44839983	      3.13592414	     -9.37517114	     36.89386516	     -4.96850639	      0.64391942	     18.67705679	     20.09750915	     -7.51376045	    -25.45319509	      4.43791349	     -3.00267315	      2.32788445	    -14.71778223	    -11.82526007	     53.08348993	     90.00000001	      0.00000000	      0.00000000	     16.32355905	    -10.77776189	     27.77578990	     48.49664204	     90.00000001	      0.00000000	      0.00000000
      3.01000000	      4.32020597	      0.05784516	      3.33801071	     -0.19030098	      0.86767840	     -0.21671853	     10.09836570	     -6.55901819	      0.81739393	     69.41042939	      3.98803892	      1.21144053	      2.97808970	     -1.09121091	     -7.51340970	     15.61901114	      3.24255835	     -9.68745618	     37.34066144	     -5.11323173	      0.65171749	     19.13775007	     20.29598476	     -7.51340970	    -25.44135706	      4.33698729	     -3.16326064	      2.26597276	    -14.67495753	    -12.17030238	     52.71364378	     90.00000001	      0.00000000	      0.00000000	     16.45576152	    -10.85974197	     27.68567765	     48.35025166	     90.00000001	      0.00000000	      0.00000000
      3.02000000	      4.15910919	      0.08101428	      3.28024807	     -0.18738694	      0.86657101	     -0.21764493	     11.68480449	     -6.51552736	      1.19256152	     70.83241722	      3.87960692	      1.23625890	      3.91584283	     -1.43245832	     -7.51305183	     15.80899715	      3.29292204	     -9.94707974	     37.81484547	     -5.24317484	      0.65999356	     19.53333883	     20.51802294	     -7.51305183	    -25.40615265	      4.28256503	     -3.26671870	      2.19652138	    -14.61345147	    -12.55725641	     52.35048110	     90.00000001	      0.00000000	      0.00000000	     16.57079175	    -10.98998523	     27.57436691	     48.17506074	     90.00000001	      0.00000000	      0.00000000
      3.03000000	      4.08910130	      0.10510383	      3.23201968	     -0.18442205	      0.86570964	     -0.21844127	     13.11822130	     -6.42647414	      1.27696358	     71.96329542	      3.53264586	      1.25599645	      4.82773264	     -1.55937328	     -7.51273485	     15.83943809	      3.31890419	    -10.11438817	     38.20336127	     -5.29966426	      0.66677444	     19.88386550	     20.64396791	     -7.51273485	    -25.47580896	      4.22496898	     -3.36856475	      2.11532204	    -14.55639947	    -12.87032932	     52.01741379	     90.00000001	      0.00000000	      0.00000000	     16.68392231	    -11.08878778	     27.45670929	     48.01751363	     90.00000001	      0.00000000	      0.00000000
      3.04000000	      4.06783318	      0.16860722	      3.13738772	     -0.18140789	      0.86501747	     -0.21912343	     14.46634043	     -6.34153933	      1.10385589	     72.82815540	      2.92055160	      1.27109110	      5.76475871	     -1.55931737	     -7.51248026	     15.75576970	      3.36530889	    -10.21887230	     38.51191268	     -5.25103048	      0.67215968	     20.23035119	     20.69677915	     -7.51248026	    -25.58407357	      4.11159664	     -3.43737693	      2.01107619	    -14.50587838	    -13.11327376	     51.67756679	     90.00000001	      0.00000000	      0.00000000	     16.79356093	    -11.20453481	     27.33060712	     47.85590879	     90.00000001	      0.00000000	      0.00000000
      3.05000000	      3.99120403	      0.23175757	      3.05266058	     -0.17850903	      0.86431074	     -0.21979496	     15.87243033	     -6.27712261	      0.65280879	     73.47883326	      2.13394147	      1.28244757	      6.72542634	     -1.33353771	     -7.51222252	     15.72666705	      3.44530146	    -10.28624817	     38.76923441	     -5.24437623	      0.67665079	     20.56272037	     20.71487108	     -7.51222252	    -25.63161136	      4.00138437	     -3.50833495	      1.93517464	    -14.44125195	    -13.38228815	     51.30836428	     90.00000001	      0.00000000	      0.00000000	     16.91094452	    -11.28087892	     27.20175519	     47.69853695	     90.00000001	      0.00000000	      0.00000000
      3.06000000	      4.05982160	      0.23615263	      3.00648116	     -0.17564152	      0.86400149	     -0.22052937	     17.03740320	     -6.18628759	      0.24685733	     73.80451803	      1.57759328	      1.28813184	      7.27801267	     -1.05327720	     -7.51203449	     15.49482363	      3.49035039	    -10.21384997	     38.94896517	     -5.21397471	      0.67978768	     20.69106275	     20.64601202	     -7.51203449	    -25.85661122	      4.01451991	     -3.59028683	      1.85372375	    -14.44492760	    -13.52523570	     51.09560461	     90.00000001	      0.00000000	      0.00000000	     17.02922216	    -11.39112899	     27.06963904	     47.63767206	     90.00000001	      0.00000000	      0.00000000
      3.07000000	      3.90880458	      0.40370253	      2.85140292	     -0.17270742	      0.86340367	     -0.22094219	     18.48297162	     -6.17111303	     -0.73082970	     73.99061058	      0.26070611	      1.29137977	      8.41150396	     -0.62426360	     -7.51179386	     15.44073023	      3.65640166	    -10.18639358	     39.01689275	     -5.06133189	      0.68097324	     21.15306449	     20.58695558	     -7.51179386	    -25.80436877	      3.74749348	     -3.57871291	      1.73077252	    -14.35962692	    -13.78670365	     50.57675486	     90.00000001	      0.00000000	      0.00000000	     17.08353356	    -11.43220566	     26.93673249	     47.40562954	     90.00000001	      0.00000000	      0.00000000
      3.08000000	      3.83822836	      0.40210095	      3.15366916	     -0.16969553	      0.86301537	     -0.22214028	     19.60569116	     -6.27184014	     -3.07266061	     73.64232406	     -1.70947098	      1.28530102	      9.49154474	      1.99327237	     -7.51110118	     15.39629372	      3.79781026	     -9.78016839	     39.26883494	     -5.03162351	      0.68537046	     21.25901303	     20.46713330	     -7.51110118	    -25.78775674	      3.89965557	     -3.97226438	      1.71015830	    -14.13284834	    -14.54765166	     50.08349984	     90.00000001	      0.00000000	      0.00000000	     17.13836029	    -11.48825323	     26.65463975	     47.28342240	     90.00000001	      0.00000000	      0.00000000
      3.09000000	      3.87961423	      0.54123035	      2.98415247	     -0.16676291	      0.86302743	     -0.22251699	     20.67183612	     -6.31071319	     -3.77579286	     73.25926249	     -2.46881904	      1.27861534	     10.12324606	      2.23322156	     -7.51087853	     15.02548515	      3.91431914	     -9.70643638	     39.15212628	     -4.81264074	      0.68333351	     21.50759028	     20.35649275	     -7.51087853	    -25.96620788	      3.70131158	     -3.92460250	      1.57646065	    -14.12503838	    -14.60385263	     49.79188760	     90.00000001	      0.00000000	      0.00000000	     17.24953360	    -11.55784317	     26.55176006	     47.19997366	     90.00000001	      0.00000000	      0.00000000
      3.10000000	      4.04116725	      0.57131187	      3.18851841	     -0.16360358	      0.86336329	     -0.22342376	     21.37116764	     -6.41166728	     -5.97051195	     72.33536463	     -4.18855083	      1.26249028	     10.89230043	      4.27910278	     -7.51024319	     14.55432529	      4.01858602	     -9.30287252	     39.10304819	     -4.65519331	      0.68247694	     21.55562754	     20.21351023	     -7.51024319	    -26.21378821	      3.78506845	     -4.19166571	      1.50757320	    -14.00293817	    -15.01089287	     49.36832912	     90.00000001	      0.00000000	      0.00000000	     17.28103837	    -11.62685144	     26.32764695	     47.16225047	     90.00000001	      0.00000000	      0.00000000
      3.11000000	      4.11185291	      0.64548573	      3.23510001	     -0.16057580	      0.86364749	     -0.22405230	     22.18330446	     -6.53000508	     -7.37005387	     71.33980928	     -5.18348617	      1.24511456	     11.48271918	      5.34677875	     -7.50972388	     14.13509513	      4.12674589	     -9.08131598	     38.93372229	     -4.49669869	      0.67952164	     21.66550811	     20.16315012	     -7.50972388	    -26.38022033	      3.75662722	     -4.30378315	      1.39886554	    -13.95026515	    -15.20675924	     48.98893184	     90.00000001	      0.00000000	      0.00000000	     17.32965551	    -11.68622225	     26.17571706	     47.12792303	     90.00000001	      0.00000000	      0.00000000
      3.12000000	      4.17494753	      0.68717912	      3.31522774	     -0.15756624	      0.86402832	     -0.22462137	     22.91862819	     -6.64134253	     -8.76484617	     70.11174950	     -6.03208343	      1.22368087	     11.98601771	      6.41521168	     -7.50922444	     13.71965088	      4.19203826	     -8.84661657	     38.74561633	     -4.34412602	      0.67623858	     21.76074707	     20.16603182	     -7.50922444	    -26.53842670	      3.77008643	     -4.41757105	      1.28593708	    -13.88220605	    -15.41663717	     48.62558881	     90.00000001	      0.00000000	      0.00000000	     17.37016313	    -11.74353252	     26.00512895	     47.14413978	     90.00000001	      0.00000000	      0.00000000
      3.13000000	      4.03230167	      0.76373194	      3.28203628	     -0.15478514	      0.86408521	     -0.22504084	     23.90846828	     -6.78374827	     -9.33392648	     68.88078166	     -6.12311048	      1.20219643	     12.27713573	      6.57440124	     -7.50903527	     13.52890073	      4.30011355	     -8.75965504	     38.50602487	     -4.25089758	      0.67205692	     21.84662612	     20.09414960	     -7.50903527	    -26.48965916	      3.71104078	     -4.41598145	      1.08754127	    -13.90312011	    -15.45292898	     48.41596996	     90.00000001	      0.00000000	      0.00000000	     17.40479351	    -11.81721282	     25.89878419	     47.20538370	     90.00000001	      0.00000000	      0.00000000
      3.14000000	      4.24969419	      0.71492087	      3.50983478	     -0.15158378	      0.86492247	     -0.22572149	     24.21035769	     -6.87262066	    -11.28673068	     67.07040286	     -7.17015085	      1.17059936	     12.78906274	      8.42327650	     -7.50855518	     12.90889404	      4.25553947	     -8.53758392	     38.25452977	     -4.14148965	      0.66766750	     21.89994697	     20.40905310	     -7.50855518	    -26.79242933	      3.88147372	     -4.60174206	      1.04034597	    -13.79654901	    -15.83970931	     47.98862169	     90.00000001	      0.00000000	      0.00000000	     17.39555428	    -11.84324070	     25.68948364	     47.31946863	     90.00000001	      0.00000000	      0.00000000
